<svg version="1" xmlns="http://www.w3.org/2000/svg" width="673.333" height="673.333" viewBox="0 0 505.000000 505.000000"><path d="M63.3 133.2c-.4.7-.8 4.8-.8 9.1 0 7 .2 7.8 2 8.3 1.1.2 28.1.3 60 .2l58-.3.3-7c.2-3.8 0-8-.3-9.2l-.5-2.3h-59c-46 0-59.1.3-59.7 1.2zM222.5 133.2c-1.9 6.3-2.5 8.9-2.7 12.8l-.3 4.5 35.3.3 35.2.2v-2.7c0-1.6-.8-5.8-1.7-9.6l-1.7-6.7h-31.9c-24.5 0-31.9.3-32.2 1.2zM322.1 133.4c-.7.9-1.1 4.3-.9 9.3l.3 7.8 58.5.3c32.2.1 59.5 0 60.8-.3 2.2-.5 2.3-.9 2-9.3l-.3-8.7-59.6-.3c-50.3-.2-59.8 0-60.8 1.2zM64 172.5c-.9 1.1-1.1 3.7-.7 8.8.4 3.9.7 7.5.7 8 0 .4 26.9.6 59.8.5l59.7-.3.3-7.8c.2-5-.1-8.4-.9-9.3-1-1.2-10.6-1.4-59.4-1.4-50.7 0-58.4.2-59.5 1.5zM215.9 172.6c-1.6 1.9-5.1 15.3-4.3 16.6.6.9 84.7 1.1 85.6.2.3-.3 0-2.9-.8-5.7-.8-2.9-1.4-6.6-1.4-8.3 0-2-.6-3.4-1.6-3.8-.9-.3-18.3-.6-38.9-.6-33.4 0-37.4.2-38.6 1.6zM322.3 172.2c-.5.7-.9 4.9-.9 9.3l.1 8h121l.3-8c.2-6.6 0-8.2-1.4-9.2-2.6-1.9-117.7-1.9-119.1-.1zM96.5 209.2c-.2.7.1 4.2.8 7.8l1.2 6.5 33.4.3 33.4.2-.6-7c-.3-3.8-.9-7.5-1.2-8-1-1.6-66.4-1.3-67 .2zM207.2 209.7c-.5 1-1.2 4.6-1.5 8l-.5 6.3h99l-.7-6.3c-1.2-10.7 3.9-9.7-49-9.7-43.2 0-46.5.1-47.3 1.7zM344.1 211.7c-.6 2.1-1.1 5.7-1.1 8v4.3h64v-2.9c0-1.7.5-3.3 1-3.6.6-.3 1-2.6 1-5.1V208h-63.9l-1 3.7zM102.6 249.2c.3 3.5.7 6.9 1 7.5.3 1 7.8 1.3 33.4 1.3h33v-2.2c0-1.2-.6-4.6-1.2-7.5l-1.3-5.3H102l.6 6.2zM200.5 244.2c-.2.7-.6 2.8-.9 4.5-.3 1.8-.9 4.7-1.2 6.3l-.6 3 25.8-.2 25.8-.3.9-4.5c1.3-7.6 1.7-9 2.5-9 1 0 3.2 5 3.2 7.4 0 1.2.3 3.1.6 4.3l.6 2.3H310l-.7-6.3c-.3-3.4-1-6.8-1.6-7.5-.7-.9-12.7-1.2-53.9-1.2-41.4 0-52.9.3-53.3 1.2zM339.6 245.2c-.3 1.3-.7 4.7-1 7.5l-.5 5.3h31.3c23.9 0 31.6-.3 32.3-1.3.6-.6 1.3-4 1.6-7.5l.5-6.2H340l-.4 2.2zM108.5 277.1c-1.1 1.7.5 13.7 1.9 14.9.9.7 11.4.9 32.7.8 27.3-.3 31.4-.5 31-1.8-.2-.8-.5-3.5-.8-6-.2-2.5-.6-5.5-.9-6.8l-.4-2.2h-31.5c-21.4 0-31.6.3-32 1.1zM195.2 276.8c-.7.5-1.7 3.5-2.2 6.8-1.7 10.4-4.4 9.4 24.5 9.4h25.4l.7-3.8c.3-2 1-5.5 1.4-7.6.5-2.2.7-4.4.4-4.8-.7-1-48.5-1-50.2 0zM261.8 276.5c-.8.9.3 12.6 1.4 14.8.8 1.6 2.9 1.7 27.1 1.5l26.2-.3-.3-2.5c-.1-1.4-.5-5-1-8l-.7-5.5-26.1-.3c-14.3-.1-26.3 0-26.6.3zM335.1 279.1c-.6 1.8-1.1 5.6-1.1 8.5v5.4h31c35.4 0 32.6.9 33.1-10l.4-6.5-31.1-.3-31.2-.2-1.1 3.1zM112.7 311.6c-.3.4-.2 1.4.3 2.3.5.9 1.2 4.6 1.6 8.1 1.1 10.9-2 10 33.5 10h31l-.7-9.8c-.3-5.3-.9-10-1.1-10.5-.5-.9-63.7-1-64.6-.1zM187.5 312.2c-.4 1.2-1.8 8.2-3.2 16.6l-.5 3.2 25.8-.2 25.8-.3 1.5-6.5c.8-3.6 1.4-8.1 1.5-10l.1-3.5-25.3-.3c-19.7-.2-25.3 0-25.7 1zM267 311.7c0 .5.7 3 1.5 5.7s1.5 6.6 1.5 8.6.5 4.1 1.2 4.8c1.8 1.8 51.7 1.7 52.3-.1.3-.6-.3-5.3-1.2-10.2l-1.8-9-26.7-.3c-14.8-.1-26.8.1-26.8.5zM331 314.7c0 2-.7 6-1.6 8.9-2.9 8.9-4.6 8.4 29.9 8.4h30.3l1.7-7.3c1-3.9 1.7-8.7 1.7-10.5V311h-62v3.7zM120.4 351.5c-.4.8-.4 2.8-.1 4.3 1.5 7.4 2.5 11.3 2.9 11.8.7.6 103.8.5 104.8-.1.9-.5 2-6.9 2.3-13l.2-4-54.8-.3c-48.2-.2-54.8 0-55.3 1.3zM275.5 355.7c.4 3.2 1.2 7.3 1.8 9l1.1 3.3 51.1.1c49.6.1 53.6.1 54.4-.6.7-.7 3-15.9 2.5-16.7-.3-.4-25.5-.8-56-.8h-55.5l.6 5.7zM411.5 365c-9.2 4.3-13.5 10.9-13.5 20.4 0 15.8 12.3 25 29.8 22.4 7.7-1.2 12.6-4.1 16.4-9.5 4.3-6.3 5.1-15.7 2-21.9-2.7-5.2-6.7-9.1-11.8-11.5-5.8-2.6-17.3-2.6-22.9.1zM127.4 389.9c-.7.8.9 15.6 1.9 16.8.7 1 11.1 1.3 45.7 1.3s45-.3 45.8-1.3c1-1.2 3.6-15.7 2.9-16.4-.6-.5-95.7-.9-96.3-.4zM282.3 390.7c-.3.7 0 2.7.6 4.4.6 1.8 1.1 4.9 1.1 7 0 2.8.5 4.1 2 4.9 1.3.7 16.9.9 46.7.8l44.7-.3 1.4-6c.8-3.3 1.4-7.3 1.5-8.9l.2-2.9-48.9-.1c-38-.1-49 .2-49.3 1.1z"/></svg>